<svg width="335" height="71" viewBox="0 0 335 71" fill="none" xmlns="http://www.w3.org/2000/svg">
<path d="M96.9554 46.2222C95.3752 46.2222 93.9023 45.9686 92.5367 45.4614C91.1906 44.9347 90.0201 44.1934 89.0251 43.2374C88.0302 42.2815 87.2498 41.1598 86.6841 39.8722C86.1378 38.5846 85.8647 37.1702 85.8647 35.6291C85.8647 34.0879 86.1378 32.6735 86.6841 31.3859C87.2498 30.0984 88.0302 28.9766 89.0251 28.0207C90.0396 27.0648 91.2198 26.3332 92.5659 25.826C93.912 25.2992 95.3849 25.0359 96.9846 25.0359C98.7599 25.0359 100.36 25.348 101.784 25.9723C103.227 26.5771 104.437 27.4744 105.412 28.6645L102.369 31.4737C101.667 30.6739 100.886 30.0789 100.028 29.6887C99.1696 29.279 98.2332 29.0742 97.2187 29.0742C96.2628 29.0742 95.3849 29.2302 94.5851 29.5424C93.7852 29.8545 93.0927 30.3032 92.5074 30.8885C91.9222 31.4737 91.4637 32.1663 91.1321 32.9661C90.8199 33.766 90.6638 34.6536 90.6638 35.6291C90.6638 36.6045 90.8199 37.4921 91.1321 38.292C91.4637 39.0918 91.9222 39.7844 92.5074 40.3697C93.0927 40.9549 93.7852 41.4036 94.5851 41.7158C95.3849 42.0279 96.2628 42.184 97.2187 42.184C98.2332 42.184 99.1696 41.9889 100.028 41.5987C100.886 41.189 101.667 40.5745 102.369 39.7551L105.412 42.5644C104.437 43.7544 103.227 44.6616 101.784 45.2858C100.36 45.9101 98.7502 46.2222 96.9554 46.2222ZM108.209 45.8711V25.387H126.879V45.8711H122.168V28.167L123.251 29.2497H111.838L112.921 28.167V45.8711H108.209ZM136.025 33.6392H145.886V37.3263H136.025V33.6392ZM136.376 42.0669H147.525V45.8711H131.664V25.387H147.145V29.1912H136.376V42.0669ZM164.318 45.8711L157.938 36.0095L161.772 33.6977L169.702 45.8711H164.318ZM151.003 45.8711V25.387H155.714V45.8711H151.003ZM154.339 37.6189V33.6684H161.479V37.6189H154.339ZM162.211 36.1558L157.85 35.6291L164.493 25.387H169.497L162.211 36.1558ZM175.82 45.8711V28.167L176.903 29.2497H169.295V25.387H187.057V29.2497H179.449L180.502 28.167V45.8711H175.82ZM189.741 45.8711V25.387H198.608C200.442 25.387 202.022 25.6894 203.348 26.2942C204.675 26.8794 205.699 27.7281 206.421 28.8401C207.143 29.952 207.504 31.2786 207.504 32.8198C207.504 34.3415 207.143 35.6583 206.421 36.7703C205.699 37.8823 204.675 38.7407 203.348 39.3455C202.022 39.9307 200.442 40.2233 198.608 40.2233H192.375L194.482 38.0871V45.8711H189.741ZM194.482 38.6139L192.375 36.3606H198.344C199.808 36.3606 200.9 36.0485 201.622 35.4242C202.344 34.7999 202.705 33.9318 202.705 32.8198C202.705 31.6883 202.344 30.8104 201.622 30.1862C200.9 29.5619 199.808 29.2497 198.344 29.2497H192.375L194.482 26.9965V38.6139ZM220.427 46.2222C218.808 46.2222 217.306 45.9589 215.921 45.4321C214.555 44.9054 213.365 44.1641 212.351 43.2082C211.356 42.2522 210.575 41.1305 210.01 39.8429C209.463 38.5554 209.19 37.1507 209.19 35.6291C209.19 34.1074 209.463 32.7028 210.01 31.4152C210.575 30.1276 211.365 29.0059 212.38 28.05C213.394 27.094 214.584 26.3527 215.95 25.826C217.316 25.2992 218.798 25.0359 220.398 25.0359C222.017 25.0359 223.5 25.2992 224.846 25.826C226.212 26.3527 227.392 27.094 228.387 28.05C229.401 29.0059 230.191 30.1276 230.757 31.4152C231.323 32.6833 231.606 34.0879 231.606 35.6291C231.606 37.1507 231.323 38.5651 230.757 39.8722C230.191 41.1598 229.401 42.2815 228.387 43.2374C227.392 44.1738 226.212 44.9054 224.846 45.4321C223.5 45.9589 222.027 46.2222 220.427 46.2222ZM220.398 42.184C221.315 42.184 222.154 42.0279 222.915 41.7158C223.695 41.4036 224.378 40.9549 224.963 40.3697C225.548 39.7844 225.997 39.0918 226.309 38.292C226.641 37.4921 226.807 36.6045 226.807 35.6291C226.807 34.6536 226.641 33.766 226.309 32.9661C225.997 32.1663 225.548 31.4737 224.963 30.8885C224.397 30.3032 223.724 29.8545 222.944 29.5424C222.163 29.2302 221.315 29.0742 220.398 29.0742C219.481 29.0742 218.632 29.2302 217.852 29.5424C217.091 29.8545 216.418 30.3032 215.833 30.8885C215.248 31.4737 214.789 32.1663 214.458 32.9661C214.145 33.766 213.989 34.6536 213.989 35.6291C213.989 36.585 214.145 37.4726 214.458 38.292C214.789 39.0918 215.238 39.7844 215.804 40.3697C216.389 40.9549 217.072 41.4036 217.852 41.7158C218.632 42.0279 219.481 42.184 220.398 42.184ZM234.598 46.193C234.247 46.193 233.876 46.1637 233.486 46.1052C233.116 46.0467 232.706 45.9686 232.257 45.8711L232.55 41.8621C232.823 41.9401 233.106 41.9791 233.398 41.9791C234.198 41.9791 234.823 41.6572 235.271 41.0134C235.72 40.3501 236.042 39.404 236.237 38.1749C236.432 36.9459 236.559 35.4535 236.617 33.6977L236.91 25.387H252.653V45.8711H247.971V28.167L249.054 29.2497H240.012L240.978 28.1085L240.802 33.5221C240.743 35.5315 240.607 37.3166 240.392 38.8772C240.178 40.4379 239.846 41.7645 239.397 42.857C238.949 43.9495 238.334 44.7786 237.554 45.3444C236.773 45.9101 235.788 46.193 234.598 46.193ZM255.165 45.8711L264.295 25.387H268.977L278.136 45.8711H273.162L265.67 27.7866H267.543L260.023 45.8711H255.165ZM259.73 41.4817L260.988 37.8823H271.523L272.811 41.4817H259.73ZM280.56 45.8711V25.387H285.272V38.7309L295.045 25.387H299.493V45.8711H294.811V32.5564L285.038 45.8711H280.56ZM290.012 24.0702C288.061 24.0702 286.627 23.68 285.711 22.8997C284.813 22.1193 284.355 21.0171 284.335 19.593H287.583C287.603 20.2953 287.808 20.8318 288.198 21.2024C288.608 21.5536 289.212 21.7292 290.012 21.7292C290.793 21.7292 291.388 21.5536 291.797 21.2024C292.207 20.8318 292.422 20.2953 292.441 19.593H295.689C295.67 21.0171 295.202 22.1193 294.285 22.8997C293.368 23.68 291.944 24.0702 290.012 24.0702ZM318.347 25.387H323.088V45.8711H318.347V25.387ZM309.042 45.8711H304.301V25.387H309.042V45.8711ZM318.698 37.4726H308.69V33.4636H318.698V37.4726Z" fill="white"/>
<path d="M62.9726 52.6736L62.9726 1.4634C62.9726 0.65532 62.3176 0.000249143 61.5095 0.000249178L17.7321 0.000247208C17.465 0.000247219 17.203 0.0733673 16.9745 0.211684L0.705503 10.0591C0.267555 10.3242 0 10.7989 0 11.3108L-6.6328e-08 52.6736C-2.96959e-08 53.4816 0.65507 54.1367 1.46314 54.1367L61.5095 54.1367C62.3176 54.1367 62.9726 53.4816 62.9726 52.6736Z" fill="#D3D3D3"/>
<path d="M53.1577 13.418H70.6162C71.4242 13.418 72.0793 14.073 72.0793 14.8811V59.7885C72.0793 60.2957 71.8166 60.7668 71.3851 61.0333L56.247 70.3843C56.016 70.5271 55.7497 70.6027 55.4781 70.6027H33.0781C32.27 70.6027 31.615 69.9476 31.615 69.1395V27.6342C31.615 27.1335 31.871 26.6675 32.2937 26.3991L52.3732 13.646C52.6078 13.4971 52.8798 13.418 53.1577 13.418Z" fill="#B2916D"/>
<path d="M62.9748 13.418V54.0203L62.8484 54.1423H31.615V26.4644L31.8224 26.0644L31.9943 25.7328L51.2149 13.6618L51.9736 13.418H62.9748Z" fill="#856847"/>
</svg>
