<svg width="1324" height="290" viewBox="0 0 1324 290" fill="none" xmlns="http://www.w3.org/2000/svg">
<path d="M385.16 189.44C378.68 189.44 372.64 188.4 367.04 186.32C361.52 184.16 356.72 181.12 352.64 177.2C348.56 173.28 345.36 168.68 343.04 163.4C340.8 158.12 339.68 152.32 339.68 146C339.68 139.68 340.8 133.88 343.04 128.6C345.36 123.32 348.56 118.72 352.64 114.8C356.8 110.88 361.64 107.88 367.16 105.8C372.68 103.64 378.72 102.56 385.28 102.56C392.56 102.56 399.12 103.84 404.96 106.4C410.88 108.88 415.84 112.56 419.84 117.44L407.36 128.96C404.48 125.68 401.28 123.24 397.76 121.64C394.24 119.96 390.4 119.12 386.24 119.12C382.32 119.12 378.72 119.76 375.44 121.04C372.16 122.32 369.32 124.16 366.92 126.56C364.52 128.96 362.64 131.8 361.28 135.08C360 138.36 359.36 142 359.36 146C359.36 150 360 153.64 361.28 156.92C362.64 160.2 364.52 163.04 366.92 165.44C369.32 167.84 372.16 169.68 375.44 170.96C378.72 172.24 382.32 172.88 386.24 172.88C390.4 172.88 394.24 172.08 397.76 170.48C401.28 168.8 404.48 166.28 407.36 162.92L419.84 174.44C415.84 179.32 410.88 183.04 404.96 185.6C399.12 188.16 392.52 189.44 385.16 189.44ZM431.31 188V104H507.87V188H488.55V115.4L492.99 119.84H446.19L450.63 115.4V188H431.31ZM545.373 137.84H585.813V152.96H545.373V137.84ZM546.813 172.4H592.533V188H527.493V104H590.973V119.6H546.813V172.4ZM661.395 188L635.235 147.56L650.955 138.08L683.475 188H661.395ZM606.795 188V104H626.115V188H606.795ZM620.475 154.16V137.96H649.755V154.16H620.475ZM652.755 148.16L634.875 146L662.115 104H682.635L652.755 148.16ZM708.565 188V115.4L713.005 119.84H681.805V104H754.645V119.84H723.445L727.765 115.4V188H708.565ZM765.651 188V104H802.011C809.531 104 816.011 105.24 821.451 107.72C826.891 110.12 831.091 113.6 834.051 118.16C837.011 122.72 838.491 128.16 838.491 134.48C838.491 140.72 837.011 146.12 834.051 150.68C831.091 155.24 826.891 158.76 821.451 161.24C816.011 163.64 809.531 164.84 802.011 164.84H776.451L785.091 156.08V188H765.651ZM785.091 158.24L776.451 149H800.931C806.931 149 811.411 147.72 814.371 145.16C817.331 142.6 818.811 139.04 818.811 134.48C818.811 129.84 817.331 126.24 814.371 123.68C811.411 121.12 806.931 119.84 800.931 119.84H776.451L785.091 110.6V158.24ZM891.487 189.44C884.847 189.44 878.687 188.36 873.007 186.2C867.407 184.04 862.527 181 858.367 177.08C854.287 173.16 851.087 168.56 848.767 163.28C846.527 158 845.407 152.24 845.407 146C845.407 139.76 846.527 134 848.767 128.72C851.087 123.44 854.327 118.84 858.487 114.92C862.647 111 867.527 107.96 873.127 105.8C878.727 103.64 884.807 102.56 891.367 102.56C898.007 102.56 904.087 103.64 909.607 105.8C915.207 107.96 920.047 111 924.127 114.92C928.287 118.84 931.527 123.44 933.847 128.72C936.167 133.92 937.327 139.68 937.327 146C937.327 152.24 936.167 158.04 933.847 163.4C931.527 168.68 928.287 173.28 924.127 177.2C920.047 181.04 915.207 184.04 909.607 186.2C904.087 188.36 898.047 189.44 891.487 189.44ZM891.367 172.88C895.127 172.88 898.567 172.24 901.687 170.96C904.887 169.68 907.687 167.84 910.087 165.44C912.487 163.04 914.327 160.2 915.607 156.92C916.967 153.64 917.647 150 917.647 146C917.647 142 916.967 138.36 915.607 135.08C914.327 131.8 912.487 128.96 910.087 126.56C907.767 124.16 905.007 122.32 901.807 121.04C898.607 119.76 895.127 119.12 891.367 119.12C887.607 119.12 884.127 119.76 880.927 121.04C877.807 122.32 875.047 124.16 872.647 126.56C870.247 128.96 868.367 131.8 867.007 135.08C865.727 138.36 865.087 142 865.087 146C865.087 149.92 865.727 153.56 867.007 156.92C868.367 160.2 870.207 163.04 872.527 165.44C874.927 167.84 877.727 169.68 880.927 170.96C884.127 172.24 887.607 172.88 891.367 172.88ZM949.599 189.32C948.159 189.32 946.639 189.2 945.039 188.96C943.519 188.72 941.839 188.4 939.999 188L941.199 171.56C942.319 171.88 943.479 172.04 944.679 172.04C947.959 172.04 950.519 170.72 952.359 168.08C954.199 165.36 955.519 161.48 956.319 156.44C957.119 151.4 957.639 145.28 957.879 138.08L959.079 104H1023.64V188H1004.44V115.4L1008.88 119.84H971.799L975.759 115.16L975.039 137.36C974.799 145.6 974.239 152.92 973.359 159.32C972.479 165.72 971.119 171.16 969.279 175.64C967.439 180.12 964.919 183.52 961.719 185.84C958.519 188.16 954.479 189.32 949.599 189.32ZM1033.94 188L1071.38 104H1090.58L1128.14 188H1107.74L1077.02 113.84H1084.7L1053.86 188H1033.94ZM1052.66 170L1057.82 155.24H1101.02L1106.3 170H1052.66ZM1138.08 188V104H1157.4V158.72L1197.48 104H1215.72V188H1196.52V133.4L1156.44 188H1138.08ZM1176.84 98.6C1168.84 98.6 1162.96 97 1159.2 93.8C1155.52 90.6 1153.64 86.08 1153.56 80.24H1166.88C1166.96 83.12 1167.8 85.32 1169.4 86.84C1171.08 88.28 1173.56 89 1176.84 89C1180.04 89 1182.48 88.28 1184.16 86.84C1185.84 85.32 1186.72 83.12 1186.8 80.24H1200.12C1200.04 86.08 1198.12 90.6 1194.36 93.8C1190.6 97 1184.76 98.6 1176.84 98.6ZM1293.03 104H1312.47V188H1293.03V104ZM1254.87 188H1235.43V104H1254.87V188ZM1294.47 153.56H1253.43V137.12H1294.47V153.56Z" fill="#222222"/>
<path d="M249 216L249 6.00002C249 2.68631 246.314 1.97509e-05 243 1.98957e-05L70.2272 1.21891e-05C69.0986 1.22384e-05 67.993 0.31828 67.0372 0.918286L2.81003 41.2361C1.06145 42.3337 1.52588e-05 44.2533 1.52588e-05 46.3178L1.49965e-05 216C1.51414e-05 219.314 2.6863 222 6.00001 222L243 222C246.314 222 249 219.314 249 216Z" fill="#D3D3D3"/>
<path d="M210.299 55H279C282.314 55 285 57.6863 285 61V245.218C285 247.263 283.958 249.167 282.237 250.27L222.48 288.552C221.513 289.171 220.39 289.5 219.243 289.5H131C127.686 289.5 125 286.814 125 283.5V113.233C125 111.215 126.014 109.332 127.7 108.222L206.998 55.9893C207.978 55.344 209.125 55 210.299 55Z" fill="#B2916D"/>
<path d="M249 55V221.5L248.5 222H125V108.5L125.82 106.86L126.5 105.5L202.5 56L205.5 55H249Z" fill="#856847"/>
</svg>
